<?xml version="1.0" standalone="no"?>
<!DOCTYPE svg PUBLIC "-//W3C//DTD SVG 20010904//EN"
 "http://www.w3.org/TR/2001/REC-SVG-20010904/DTD/svg10.dtd">
<svg version="1.0" xmlns="http://www.w3.org/2000/svg"
 width="204.000000pt" height="192.000000pt" viewBox="0 0 204.000000 192.000000"
 preserveAspectRatio="xMidYMid meet">

<g transform="translate(0.000000,192.000000) scale(0.100000,-0.100000)"
fill="#000000" stroke="none">
<path d="M50 890 l0 -250 133 0 c153 0 191 12 219 70 30 60 16 143 -29 168
-15 9 -14 13 10 42 21 25 27 42 27 81 0 42 -5 55 -32 85 -41 44 -80 53 -220
54 l-108 0 0 -250z m250 140 c49 -49 2 -100 -91 -100 l-59 0 0 60 0 60 65 0
c52 0 69 -4 85 -20z m0 -198 c14 -11 23 -29 23 -47 0 -45 -33 -65 -109 -65
l-64 0 0 65 0 65 64 0 c47 0 70 -5 86 -18z"/>
<path d="M480 1133 c0 -3 34 -71 75 -150 l75 -143 0 -100 0 -100 50 0 50 0 0
103 0 102 75 144 c41 80 75 146 75 148 0 2 -23 3 -52 1 l-52 -3 -49 -100 -50
-100 -48 103 -48 102 -50 0 c-28 0 -51 -3 -51 -7z"/>
<path d="M958 1134 c-5 -4 -8 -117 -8 -251 l0 -243 130 0 c150 0 188 11 220
62 31 49 24 132 -14 165 l-27 23 25 31 c29 34 35 98 14 144 -24 53 -70 69
-208 73 -69 2 -128 1 -132 -4z m234 -96 c30 -24 31 -56 4 -83 -21 -21 -34 -25
-86 -25 l-60 0 0 60 0 60 63 0 c35 0 70 -6 79 -12z m6 -204 c15 -10 22 -25 22
-49 0 -48 -29 -65 -107 -65 l-63 0 0 65 0 65 63 0 c40 0 70 -5 85 -16z"/>
<path d="M1627 1133 c-4 -3 -7 -24 -7 -45 l0 -38 70 0 70 0 0 -205 0 -205 45
0 45 0 0 205 0 205 70 0 70 0 0 45 0 45 -178 0 c-98 0 -182 -3 -185 -7z"/>
</g>
</svg>
