<?xml version="1.0" standalone="no"?>
<!DOCTYPE svg PUBLIC "-//W3C//DTD SVG 20010904//EN"
 "http://www.w3.org/TR/2001/REC-SVG-20010904/DTD/svg10.dtd">
<svg version="1.0" xmlns="http://www.w3.org/2000/svg"
 width="2542.000000pt" height="1135.000000pt" viewBox="0 0 2542.000000 1135.000000"
 preserveAspectRatio="xMidYMid meet">

<g transform="translate(0.000000,1135.000000) scale(0.100000,-0.100000)"
fill="#000000" stroke="none">
<path d="M25285 11253 c-724 -498 -1620 -1375 -2597 -2542 l-148 -176 0 -809
c0 -445 2 -807 4 -805 3 2 57 101 122 219 690 1264 1655 2752 2566 3959 93
122 168 224 166 226 -2 2 -52 -31 -113 -72z"/>
<path d="M18605 7926 c-68 -22 -100 -43 -153 -101 -59 -64 -82 -126 -82 -215
0 -90 23 -151 82 -215 60 -66 120 -99 208 -115 123 -22 249 18 329 105 68 74
86 123 86 235 0 86 -3 100 -29 148 -36 65 -82 107 -156 141 -45 21 -72 26
-150 28 -58 2 -111 -3 -135 -11z"/>
<path d="M2 6068 l3 -1553 765 0 c803 0 850 2 1060 47 556 118 985 482 1150
976 62 186 74 274 74 532 0 258 -12 346 -74 532 -161 480 -563 832 -1105 964
-211 51 -266 54 -1101 54 l-774 0 2 -1552z m1562 1047 c268 -40 474 -142 643
-318 130 -136 211 -295 249 -494 23 -119 23 -347 0 -466 -80 -411 -362 -694
-795 -799 -80 -20 -122 -22 -578 -25 l-493 -4 0 1060 0 1061 436 0 c338 0 459
-3 538 -15z"/>
<path d="M14790 7150 l0 -260 -192 -2 -193 -3 -3 -222 -2 -223 195 0 195 0 0
-567 c0 -313 5 -620 10 -683 18 -223 80 -373 206 -497 205 -203 591 -268 935
-157 88 29 205 96 201 116 -3 15 -107 283 -133 346 l-19 43 -37 -26 c-61 -41
-156 -66 -258 -67 -134 -2 -216 33 -275 114 -65 89 -64 80 -68 761 l-3 617
320 0 321 0 0 225 0 225 -320 0 -320 0 0 260 0 260 -280 0 -280 0 0 -260z"/>
<path d="M4400 6893 c-168 -29 -355 -106 -490 -201 -83 -59 -213 -189 -272
-272 -204 -289 -268 -687 -172 -1059 98 -375 383 -673 767 -799 176 -58 288
-75 497 -76 381 0 670 102 895 317 l69 67 -30 32 c-17 18 -79 89 -139 158 -59
69 -114 131 -121 139 -11 12 -19 9 -56 -25 -93 -86 -222 -156 -348 -188 -88
-23 -305 -32 -410 -17 -307 45 -537 244 -604 524 l-6 27 928 0 929 0 7 46 c15
110 2 304 -29 444 -51 229 -159 424 -321 580 -174 167 -365 262 -610 305 -111
19 -369 18 -484 -2z m450 -454 c238 -64 422 -266 466 -511 l6 -38 -672 0 -672
0 7 47 c24 164 140 334 290 428 161 100 373 128 575 74z"/>
<path d="M7280 6905 c-8 -2 -49 -9 -90 -15 -167 -27 -344 -97 -492 -196 -397
-264 -587 -744 -493 -1242 81 -428 400 -777 827 -906 143 -44 259 -59 433 -60
344 0 616 99 823 298 102 97 204 247 180 263 -7 4 -103 61 -213 125 l-200 118
-18 -23 c-105 -133 -163 -184 -262 -232 -108 -53 -182 -69 -320 -69 -145 0
-214 16 -344 80 -158 78 -269 210 -328 389 -35 108 -44 329 -19 456 48 237
210 427 433 504 301 105 619 21 800 -209 31 -39 58 -70 62 -69 10 2 405 234
414 242 4 4 -10 35 -30 69 -152 251 -409 414 -736 467 -80 13 -376 20 -427 10z"/>
<path d="M9705 6894 c-345 -64 -632 -255 -806 -538 -238 -387 -231 -951 17
-1328 58 -88 226 -259 311 -316 147 -99 338 -174 533 -208 129 -23 409 -24
542 -1 177 31 341 92 476 180 73 47 215 174 210 188 -5 14 -290 339 -297 339
-4 0 -23 -16 -42 -36 -90 -93 -252 -172 -410 -200 -127 -22 -343 -15 -449 16
-172 49 -312 145 -398 274 -50 75 -89 163 -99 224 l-6 32 926 0 c834 0 925 2
931 16 3 9 6 74 6 146 0 608 -322 1050 -870 1193 -94 25 -126 28 -300 31 -143
2 -216 -1 -275 -12z m434 -451 c225 -58 409 -239 466 -460 27 -104 107 -93
-656 -93 l-671 0 7 43 c38 227 215 428 443 502 111 36 291 40 411 8z"/>
<path d="M12794 6896 c-216 -41 -392 -125 -526 -253 l-58 -56 0 151 0 152
-265 0 -265 0 0 -1190 0 -1190 278 2 277 3 6 690 c6 767 4 745 76 895 26 55
55 94 107 145 124 123 262 176 461 178 189 1 312 -41 415 -143 66 -66 103
-131 132 -237 22 -77 23 -91 26 -806 l3 -727 277 2 277 3 0 760 c0 816 -2 850
-52 1010 -50 159 -126 279 -248 393 -92 86 -232 159 -380 198 -88 24 -123 27
-285 30 -125 2 -208 -1 -256 -10z"/>
<path d="M17716 6894 c-102 -18 -246 -67 -316 -106 -80 -44 -180 -128 -226
-187 l-39 -52 -3 170 -2 171 -265 0 -265 0 2 -1187 3 -1188 277 -3 277 -2 3
667 c4 647 4 670 25 744 67 237 220 391 450 450 71 18 272 29 323 17 13 -3 15
32 18 260 l2 262 -92 -1 c-51 0 -129 -7 -172 -15z"/>
<path d="M18442 5703 l3 -1188 278 -3 277 -2 0 1190 0 1190 -280 0 -280 0 2
-1187z"/>
<path d="M21907 5392 l-226 -277 -1 -125 c-2 -578 258 -1323 766 -2196 52 -88
94 -170 94 -181 0 -39 534 -771 928 -1273 410 -521 1158 -1407 1089 -1290
-282 484 -638 1168 -900 1730 -490 1052 -983 2292 -1378 3468 -76 229 -141
417 -142 419 -2 1 -105 -122 -230 -275z"/>
<path d="M20751 4568 c-1 -225 1 -408 3 -408 5 0 134 195 183 278 l45 77 -115
230 -116 230 0 -407z"/>
<path d="M16661 3869 c-86 -28 -179 -117 -206 -198 -56 -171 19 -343 184 -419
47 -22 70 -27 146 -27 127 0 183 21 262 100 53 53 64 71 83 134 86 280 -171
504 -469 410z"/>
<path d="M13769 3775 c-186 -29 -318 -93 -434 -210 -92 -93 -136 -162 -176
-277 -38 -111 -49 -188 -49 -340 l0 -128 -195 0 -195 0 0 -225 0 -225 195 0
195 0 0 -955 0 -955 278 2 277 3 3 953 2 952 315 0 315 0 0 225 0 225 -326 0
-326 0 4 138 c3 124 6 143 31 197 34 73 67 109 128 141 124 62 331 48 452 -32
22 -14 40 -24 41 -22 7 9 146 405 146 414 0 15 -102 68 -170 88 -146 44 -349
56 -511 31z"/>
<path d="M10696 3518 c-12 -29 -317 -705 -676 -1503 -359 -797 -663 -1474
-676 -1503 l-24 -52 301 2 300 3 153 355 152 355 775 3 776 2 155 -357 154
-358 303 -3 c285 -2 302 -1 297 15 -3 10 -318 709 -699 1553 l-693 1535 -287
3 -287 2 -24 -52z m604 -1223 l279 -650 -571 -3 c-314 -1 -573 0 -576 3 -4 3
531 1263 561 1320 10 20 10 20 19 0 4 -11 134 -312 288 -670z"/>
<path d="M15815 2845 c-124 -19 -201 -43 -310 -96 -110 -53 -199 -120 -260
-199 l-40 -51 -3 166 -2 165 -265 0 -265 0 0 -1185 0 -1185 280 0 280 0 0 638
c1 686 3 721 54 855 96 254 335 396 647 385 l109 -3 0 262 0 263 -72 -1 c-40
-1 -109 -7 -153 -14z"/>
<path d="M18645 2845 c-427 -69 -775 -320 -939 -676 -124 -269 -142 -635 -45
-923 97 -291 313 -538 594 -679 273 -137 675 -174 984 -92 202 54 336 130 476
270 93 94 165 192 169 231 1 12 -59 52 -199 135 -110 65 -205 118 -211 118 -6
1 -24 -17 -39 -39 -89 -129 -252 -233 -415 -266 -99 -20 -259 -15 -355 11
-295 80 -481 323 -502 655 -27 433 215 739 622 790 240 30 469 -56 614 -230
27 -33 54 -67 59 -76 8 -14 39 1 221 107 116 68 211 128 211 135 0 6 -22 45
-48 85 -149 226 -367 367 -672 434 -106 23 -407 29 -525 10z"/>
<path d="M21015 2845 c-137 -19 -271 -51 -389 -92 -117 -41 -173 -68 -279
-135 l-77 -50 18 -32 c11 -17 61 -108 111 -202 l92 -172 67 46 c179 120 398
182 648 183 157 0 253 -18 351 -66 150 -74 242 -234 243 -422 l0 -51 -427 -5
c-450 -5 -506 -10 -668 -58 -194 -58 -358 -184 -428 -329 -146 -301 -72 -645
183 -841 201 -156 516 -222 830 -174 219 33 373 107 492 238 l48 52 0 -137 0
-138 265 0 265 0 0 738 c0 434 -4 774 -10 827 -39 345 -194 583 -465 714 -97
47 -155 66 -277 92 -124 27 -448 35 -593 14z m785 -1506 c0 -140 0 -142 -32
-203 -98 -183 -313 -296 -566 -296 -213 0 -361 69 -424 198 -34 70 -32 188 4
258 54 103 147 157 301 173 45 4 225 9 400 10 l317 1 0 -141z"/>
<path d="M16510 1645 l0 -1185 280 0 280 0 0 1185 0 1185 -280 0 -280 0 0
-1185z"/>
</g>
</svg>
