<?xml version="1.0" encoding="UTF-8"?>
<svg id="Layer_2" data-name="Layer 2" xmlns="http://www.w3.org/2000/svg" viewBox="0 0 166.13 272.02">
  <defs>
    <style>
      .cls-1, .cls-2 {
        fill-rule: evenodd;
      }

      .cls-1, .cls-2, .cls-3 {
        fill: #fff;
      }

      .cls-2 {
        isolation: isolate;
        opacity: .3;
      }
    </style>
  </defs>
  <g id="Layer_2-2" data-name="Layer 2">
    <g id="Layer_1-2" data-name="Layer 1-2">
      <g>
        <path class="cls-3" d="M0,177.11s21.59,15.32,45.1-42.49l14.63,29.26s-29.26,55.38-59.73,13.23h0Z"/>
        <path class="cls-3" d="M6.27,75.23s34.83-43.71,61.12,30.3c0,0,54.86-77.32,98.74-105.53,0,0-56.77,71.75-89.68,149.42l10.97-13.49s23.51,76.53,58.69,136.09c0,0-56.02-61.45-81.68-117.17-4.84-10.51-9.94-20.89-15.38-31.1-.18-.33-.35-.66-.53-1-4.56-8.55-8.83-17.25-12.88-26.06-4.63-10.08-14.54-26.08-29.37-21.46h0Z"/>
        <path class="cls-2" d="M87.42,135.93s37.43,109.34,58.69,136.09c0,0-72.44-75.23-69.66-122.6l10.97-13.49h0Z"/>
        <path class="cls-1" d="M6.27,75.23s16.69-21.75,36.52-8.75c0,0,15.85,10.32,24.6,39.05,0,0-14.67-49.43-61.12-30.3Z"/>
      </g>
    </g>
  </g>
</svg>