<?xml version="1.0" standalone="no"?>
<!DOCTYPE svg PUBLIC "-//W3C//DTD SVG 20010904//EN"
 "http://www.w3.org/TR/2001/REC-SVG-20010904/DTD/svg10.dtd">
<svg version="1.0" xmlns="http://www.w3.org/2000/svg"
 width="204.000000pt" height="192.000000pt" viewBox="0 0 204.000000 192.000000"
 preserveAspectRatio="xMidYMid meet">

<g transform="translate(0.000000,192.000000) scale(0.100000,-0.100000)"
fill="#000000" stroke="none">
<path d="M320 960 l0 -210 208 2 207 3 0 205 0 205 -207 3 -208 2 0 -210z
m280 0 l0 -70 -75 0 -75 0 0 70 0 70 75 0 75 0 0 -70z"/>
<path d="M810 960 l0 -210 70 0 70 0 0 70 0 70 70 0 70 0 0 70 0 70 -70 0 -70
0 0 70 0 70 -70 0 -70 0 0 -210z"/>
<path d="M1092 1103 l3 -68 68 -3 67 -3 0 71 0 70 -70 0 -71 0 3 -67z"/>
<path d="M1304 1156 c-3 -7 -4 -38 -2 -67 l3 -54 68 -3 67 -3 0 71 0 70 -65 0
c-46 0 -67 -4 -71 -14z"/>
<path d="M1590 1100 l0 -70 65 0 65 0 0 70 0 70 -65 0 -65 0 0 -70z"/>
<path d="M1444 1016 c-3 -7 -4 -38 -2 -67 l3 -54 68 -3 67 -3 0 71 0 70 -65 0
c-46 0 -67 -4 -71 -14z"/>
<path d="M1097 883 c-4 -3 -7 -35 -7 -70 l0 -63 70 0 70 0 0 70 0 70 -63 0
c-35 0 -67 -3 -70 -7z"/>
<path d="M1304 876 c-3 -7 -4 -38 -2 -67 l3 -54 68 -3 67 -3 0 71 0 70 -65 0
c-46 0 -67 -4 -71 -14z"/>
<path d="M1590 820 l0 -70 65 0 65 0 0 70 0 70 -65 0 -65 0 0 -70z"/>
</g>
</svg>
